<?xml version="1.0" encoding="utf-8"?>
<!-- Generator: Adobe Illustrator 27.2.0, SVG Export Plug-In . SVG Version: 6.00 Build 0)  -->
<svg version="1.1" id="Calque_1" xmlns="http://www.w3.org/2000/svg" xmlns:xlink="http://www.w3.org/1999/xlink" x="0px" y="0px"
	 viewBox="0 0 122.9 114.4" style="enable-background:new 0 0 122.9 114.4;" xml:space="preserve">
<style type="text/css">
	.st0{fill-rule:evenodd;clip-rule:evenodd;fill:#394150;}
</style>
<path class="st0" d="M34.8,35.8c3.7,0,6.7,3,6.7,6.7c0,3.7-3,6.7-6.7,6.7c-3.7,0-6.7-3-6.7-6.7C28,38.8,31,35.8,34.8,35.8
	C34.7,35.8,34.7,35.8,34.8,35.8L34.8,35.8z M7,0h108.9c3.9,0,7,3.1,7,7l0,0v72.9c0,3.9-3.1,7-7,7H62.5l-26.4,19.6
	c-5,4.8-9.5,7.8-12.9,8c-5,0.3-7.6-3.1-7-11.6v-16H7c-3.9,0-7-3.1-7-7V7C0,3.1,3.1,0,7,0z M115.9,6.8H7c-0.1,0-0.2,0-0.2,0.1
	c0,0,0,0,0,0.1v72.9C6.8,80,6.9,80,7,80c0,0,0,0,0,0h12.6c1.9,0,3.4,1.5,3.4,3.4l0,0v19.5l0,0c0,0.1,0,0.2,0,0.2
	c-0.2,3.2-0.3,4.5-0.2,4.5c1.7-0.1,4.8-2.5,8.8-6.2l0.3-0.3l27.3-20.2c0.6-0.6,1.4-0.9,2.2-0.9h54.5c0.1,0,0.2-0.1,0.2-0.2V7
	C116.1,6.9,116,6.8,115.9,6.8L115.9,6.8z M60.4,35.8c3.7,0,6.7,3,6.7,6.7s-3,6.7-6.7,6.7c-3.7,0-6.7-3-6.7-6.7
	C53.7,38.8,56.7,35.8,60.4,35.8C60.4,35.8,60.4,35.8,60.4,35.8z M86.1,35.8c3.7,0,6.7,3,6.7,6.7s-3,6.7-6.7,6.7
	c-3.7,0-6.7-3-6.7-6.7C79.4,38.8,82.4,35.8,86.1,35.8C86.1,35.8,86.1,35.8,86.1,35.8z"/>
</svg>
