<?xml version="1.0" encoding="utf-8"?>
<!-- Generator: Adobe Illustrator 27.2.0, SVG Export Plug-In . SVG Version: 6.00 Build 0)  -->
<svg version="1.1" id="Layer_1" xmlns="http://www.w3.org/2000/svg" xmlns:xlink="http://www.w3.org/1999/xlink" x="0px" y="0px"
	 viewBox="0 0 122.9 109.6" style="enable-background:new 0 0 122.9 109.6;" xml:space="preserve">
<style type="text/css">
	.st0{fill:#394150;}
</style>
<g>
	<path class="st0" d="M65.5,19.6c-0.7,0.7-1.4,1.5-2.2,2.3l-2.3,2.4L58.5,22c-0.7-0.7-1.4-1.4-2.1-2.1C49,12.6,43.4,7.1,31.9,6.9
		c-0.5,0-0.9,0-1.4,0C24,7.2,18.1,9.5,13.7,13.6c-4.3,4-7,9.7-7.1,16.6c0,0.4,0,0.9,0,1.4c0.7,19.3,19.1,36.1,34.4,50
		c3,2.7,5.8,5.3,8.5,7.9l11.3,10.8l14.2-14c2.3-2.3,4.9-4.7,7.6-7.4c4.7-4.5,9.9-9.5,14.8-14.5c3.5-3.6,6.8-7.2,9.6-10.7
		c2.8-3.4,5-6.7,6.5-9.6c2.4-4.8,3.1-9.5,2.6-14c-0.5-4.4-2.2-8.5-4.8-12c-2.6-3.5-6.1-6.5-10.1-8.5c-4.6-2.3-9.9-3.4-15.3-2.8
		C76.5,7.9,71.5,13.2,65.5,19.6L65.5,19.6z M60.8,14.8C67.7,7.5,73.4,1.5,85,0.2c6.7-0.8,13.3,0.6,19,3.5c4.9,2.5,9.3,6.1,12.5,10.5
		c3.3,4.4,5.5,9.6,6.1,15.2c0.7,5.7-0.3,11.7-3.3,17.7c-1.7,3.4-4.2,7-7.2,10.8c-2.9,3.7-6.4,7.4-10,11.2
		c-4.9,5.1-10.2,10.2-14.9,14.7c-2.8,2.7-5.4,5.1-7.5,7.3l-16.5,16.3l-2.3,2.3l-2.3-2.2L44.9,94.2c-2.5-2.4-5.4-5-8.4-7.8
		C20.4,71.7,0.8,53.8,0,31.8c0-0.5,0-1.1,0-1.7c0.1-8.9,3.7-16.2,9.2-21.4c5.5-5.1,13-8.1,21-8.4c0.5,0,1.1,0,1.7,0
		C46,0.5,52.4,6.6,60.8,14.8L60.8,14.8z"/>
</g>
</svg>
